HIERARCHY
ROOT joint_Root
{
	OFFSET 0.0 0.0 0.0
	CHANNELS 6 Xposition Yposition Zposition Zrotation Xrotation Yrotation 
	JOINT Hips
	{
		OFFSET -0.726466 93.3139 -2.00062
		CHANNELS 6 Xposition Yposition Zposition Zrotation Xrotation Yrotation 
		JOINT Spine
		{
			OFFSET 15.7357 0.0 0.0
			CHANNELS 6 Xposition Yposition Zposition Zrotation Xrotation Yrotation 
			JOINT Chest
			{
				OFFSET 8.98455 -0.406207 0.0
				CHANNELS 6 Xposition Yposition Zposition Zrotation Xrotation Yrotation 
				JOINT Neck
				{
					OFFSET 16.3773 0.0 0.0
					CHANNELS 6 Xposition Yposition Zposition Zrotation Xrotation Yrotation 
					JOINT Head
					{
						OFFSET 6.45672 0.0 0.0
						CHANNELS 6 Xposition Yposition Zposition Zrotation Xrotation Yrotation 
						End Site
						{
							OFFSET 0.0 0.0 0.0
						}
					}
				}
				JOINT Shoulder_L
				{
					OFFSET 12.9942 -0.242716 4.98039
					CHANNELS 6 Xposition Yposition Zposition Zrotation Xrotation Yrotation 
					JOINT UpperArm_L
					{
						OFFSET 5.34809 0.0 0.0
						CHANNELS 6 Xposition Yposition Zposition Zrotation Xrotation Yrotation 
						JOINT LowerArm_L
						{
							OFFSET 24.3286 1.87007e-05 0.0
							CHANNELS 6 Xposition Yposition Zposition Zrotation Xrotation Yrotation 
							JOINT Hand_L
							{
								OFFSET 22.2916 0.0 0.0
								CHANNELS 6 Xposition Yposition Zposition Zrotation Xrotation Yrotation 
								End Site
								{
									OFFSET 0.0 0.0 0.0
								}
							}
						}
					}
				}
				JOINT Shoulder_R
				{
					OFFSET 12.9945 -0.242716 -4.98039
					CHANNELS 6 Xposition Yposition Zposition Zrotation Xrotation Yrotation 
					JOINT UpperArm_R
					{
						OFFSET -5.34813 0.0 0.0
						CHANNELS 6 Xposition Yposition Zposition Zrotation Xrotation Yrotation 
						JOINT LowerArm_R
						{
							OFFSET -24.3289 0.000322201 0.0
							CHANNELS 6 Xposition Yposition Zposition Zrotation Xrotation Yrotation 
							JOINT Hand_R
							{
								OFFSET -22.2915 -0.000108084 0.0
								CHANNELS 6 Xposition Yposition Zposition Zrotation Xrotation Yrotation 
								End Site
								{
									OFFSET 0.0 0.0 0.0
								}
							}
						}
					}
				}
			}
		}
		JOINT UpperLeg_L
		{
			OFFSET -2.19248 -6.46944 0.0
			CHANNELS 6 Xposition Yposition Zposition Zrotation Xrotation Yrotation 
			JOINT LowerLeg_L
			{
				OFFSET 39.0811 0.0 -1.23785e-05
				CHANNELS 6 Xposition Yposition Zposition Zrotation Xrotation Yrotation 
				JOINT Foot_L
				{
					OFFSET 40.9854 0.0 -1.26872e-05
					CHANNELS 6 Xposition Yposition Zposition Zrotation Xrotation Yrotation 
					JOINT Toes_L
					{
						OFFSET 11.7543 0.0 0.0
						CHANNELS 6 Xposition Yposition Zposition Zrotation Xrotation Yrotation 
						End Site
						{
							OFFSET 0.0 0.0 0.0
						}
					}
				}
			}
		}
		JOINT UpperLeg_R
		{
			OFFSET -2.19251 6.46944 0.0
			CHANNELS 6 Xposition Yposition Zposition Zrotation Xrotation Yrotation 
			JOINT LowerLeg_R
			{
				OFFSET -39.0811 -0.00228153 -0.0401928
				CHANNELS 6 Xposition Yposition Zposition Zrotation Xrotation Yrotation 
				JOINT Foot_R
				{
					OFFSET -40.9854 0.0 0.0
					CHANNELS 6 Xposition Yposition Zposition Zrotation Xrotation Yrotation 
					JOINT Toes_R
					{
						OFFSET -11.7543 0.0 0.0
						CHANNELS 6 Xposition Yposition Zposition Zrotation Xrotation Yrotation 
						End Site
						{
							OFFSET 0.0 0.0 0.0
						}
					}
				}
			}
		}
	}
}
MOTION
Frames:	6
Frame Time:	0.0333333
0.000000 0.000000 0.000000 0.000000 0.000000 -0.000000 -3.411460 91.959200 0.080165 88.302000 1.425770 2.910760 15.735700 0.000005 -0.000001 67.058700 87.072900 -62.885200 8.984550 -0.406207 -0.000000 -2.265730 -2.646120 8.295330 16.377300 -0.000001 -0.000001 -0.070732 -1.573220 -1.515190 6.456720 -0.000001 -0.000000 -0.948733 -2.145170 0.256911 12.994200 -0.242716 4.980390 -85.561000 -9.339710 -64.435800 5.348090 -0.000007 -0.000001 -71.829200 -57.579700 -96.007100 24.328600 0.000019 0.000005 4.012090 2.284130 -60.393300 22.291600 -0.000001 0.000005 23.034800 5.661520 -16.236200 12.994500 -0.242716 -4.980390 90.950100 -2.703780 -70.629600 -5.348130 -0.000001 -0.000004 -67.638400 72.691000 18.730800 -24.328900 0.000322 -0.000009 21.477900 2.553220 -83.541600 -22.291500 -0.000108 -0.000004 34.755200 5.668720 -25.052300 -2.192480 -6.469440 -0.000000 -167.701000 -16.727000 -2.083530 39.081100 -0.000007 -0.000012 -0.146764 0.416813 19.397800 40.985400 -0.000006 -0.000013 -8.650560 -0.535860 -61.771600 11.754300 -0.000000 0.000003 -0.000110 -0.001114 -16.620200 -2.192510 6.469440 -0.000001 175.335000 23.061200 179.407000 -39.081100 -0.002282 -0.040193 -0.074983 0.206128 20.800600 -40.985400 0.000008 0.000006 -3.332800 -0.927648 -65.429500 -11.754300 -0.000006 -0.000006 -0.003499 -0.046127 -18.449200
0.000000 0.000000 0.000000 0.000000 0.000000 -0.000000 -3.387320 91.953500 0.106334 88.388400 1.452650 2.984460 15.735700 0.000005 -0.000001 66.971500 87.019700 -62.804700 8.984550 -0.406207 -0.000000 -2.169720 -2.691910 8.282990 16.377300 -0.000001 -0.000001 0.034021 -1.572990 -1.528570 6.456720 -0.000001 -0.000000 -1.035270 -2.096460 0.225689 12.994200 -0.242716 4.980390 -85.569700 -9.323760 -64.442000 5.348090 -0.000007 -0.000001 -71.935800 -57.648700 -95.942300 24.328600 0.000019 0.000005 4.033610 2.297240 -60.384600 22.291600 -0.000001 0.000005 22.929500 5.660990 -16.173300 12.994500 -0.242716 -4.980390 90.943900 -2.677130 -70.570100 -5.348130 -0.000001 -0.000004 -67.366300 72.613800 18.436700 -24.328900 0.000322 -0.000009 21.510900 2.556980 -83.543000 -22.291500 -0.000108 -0.000004 34.730100 5.668860 -25.033600 -2.192480 -6.469440 -0.000000 -167.782000 -16.726700 -1.991000 39.081100 -0.000007 -0.000012 -0.144684 0.411101 19.389200 40.985400 -0.000006 -0.000013 -8.631970 -0.521719 -61.780600 11.754300 -0.000000 0.000003 -0.000096 -0.000997 -16.615800 -2.192510 6.469440 -0.000001 175.188000 23.073800 179.475000 -39.081100 -0.002282 -0.040193 -0.077534 0.211899 20.885300 -40.985400 0.000008 0.000006 -3.362590 -0.940501 -65.487000 -11.754300 -0.000006 -0.000006 -0.003505 -0.046188 -18.451700
0.000000 0.000000 0.000000 0.000000 0.000000 -0.000000 -3.385070 91.949500 0.121126 88.383600 1.523500 2.991300 15.735700 0.000005 -0.000001 66.808100 86.994300 -62.626900 8.984550 -0.406207 -0.000000 -2.127970 -2.727270 8.312270 16.377300 -0.000001 -0.000001 0.046579 -1.558060 -1.530030 6.456720 -0.000001 -0.000000 -1.037120 -2.034720 0.257094 12.994200 -0.242716 4.980390 -85.571400 -9.308690 -64.415000 5.348090 -0.000007 -0.000001 -72.106700 -57.561100 -96.011700 24.328600 0.000019 0.000005 3.976830 2.270000 -60.327900 22.291600 -0.000001 0.000005 22.981400 5.660680 -16.137000 12.994500 -0.242716 -4.980390 90.927700 -2.620270 -70.496000 -5.348130 -0.000001 -0.000004 -67.198500 72.471500 18.294300 -24.328900 0.000322 -0.000009 21.598000 2.553560 -83.579900 -22.291500 -0.000108 -0.000004 34.565300 5.668620 -25.069100 -2.192480 -6.469440 -0.000000 -167.755000 -16.766300 -1.983340 39.081100 -0.000007 -0.000012 -0.146890 0.417124 19.399900 40.985400 -0.000006 -0.000013 -8.616300 -0.369834 -61.783700 11.754300 -0.000000 0.000003 -0.000117 -0.001180 -16.622700 -2.192510 6.469440 -0.000001 175.187000 23.037700 179.505000 -39.081100 -0.002282 -0.040193 -0.077630 0.212359 20.866500 -40.985400 0.000008 0.000006 -3.488880 -1.034830 -65.491100 -11.754300 -0.000006 -0.000006 -0.003435 -0.045430 -18.420800
0.000000 0.000000 0.000000 0.000000 0.000000 -0.000000 -3.364800 91.954700 0.122404 88.399800 1.626820 2.927420 15.735700 0.000005 -0.000001 66.217900 86.981400 -62.027900 8.984550 -0.406207 -0.000000 -2.126290 -2.795180 8.328760 16.377300 -0.000001 -0.000001 0.045898 -1.558600 -1.530990 6.456720 -0.000001 -0.000000 -1.058820 -1.977010 0.305182 12.994200 -0.242716 4.980390 -85.590100 -9.285400 -64.454100 5.348090 -0.000007 -0.000001 -72.076600 -57.599600 -95.872500 24.328600 0.000019 0.000005 3.944920 2.250230 -60.344100 22.291600 -0.000001 0.000005 22.977700 5.659880 -16.044800 12.994500 -0.242716 -4.980390 90.921700 -2.589880 -70.402100 -5.348130 -0.000001 -0.000004 -66.919300 72.399100 17.980100 -24.328900 0.000322 -0.000009 21.589700 2.559040 -83.563500 -22.291500 -0.000108 -0.000004 34.444200 5.668400 -25.101700 -2.192480 -6.469440 -0.000000 -167.803000 -16.709700 -2.050340 39.081100 -0.000007 -0.000012 -0.146339 0.416637 19.353400 40.985400 -0.000006 -0.000013 -8.597690 -0.306815 -61.754600 11.754300 -0.000000 0.000003 -0.000113 -0.001142 -16.621300 -2.192510 6.469440 -0.000001 175.200000 23.060000 179.444000 -39.081100 -0.002282 -0.040193 -0.075218 0.206044 20.865300 -40.985400 0.000008 0.000006 -3.395280 -1.120390 -65.498100 -11.754300 -0.000006 -0.000006 -0.003586 -0.047062 -18.487300
0.000000 0.000000 0.000000 0.000000 0.000000 -0.000000 -3.368370 91.951800 0.162586 88.425100 1.827230 2.952830 15.735700 0.000005 -0.000001 65.376000 86.926200 -61.182600 8.984550 -0.406207 -0.000000 -2.057730 -2.919820 8.334790 16.377300 -0.000001 -0.000001 0.053907 -1.570710 -1.517000 6.456720 -0.000001 -0.000000 -1.146340 -1.984070 0.362435 12.994200 -0.242716 4.980390 -85.586500 -9.280400 -64.424100 5.348090 -0.000007 -0.000001 -71.842200 -57.556700 -95.469300 24.328600 0.000019 0.000005 4.007020 2.274660 -60.464200 22.291600 -0.000001 0.000005 23.038500 5.659150 -15.963900 12.994500 -0.242716 -4.980390 90.903200 -2.531000 -70.353200 -5.348130 -0.000001 -0.000004 -66.744000 72.346100 17.846800 -24.328900 0.000322 -0.000009 21.501500 2.538740 -83.585600 -22.291500 -0.000108 -0.000004 34.288400 5.668080 -25.148500 -2.192480 -6.469440 -0.000000 -167.835000 -16.677000 -2.076140 39.081100 -0.000007 -0.000012 -0.145224 0.412847 19.380000 40.985400 -0.000006 -0.000013 -8.572480 -0.222294 -61.743600 11.754300 -0.000000 0.000003 -0.000097 -0.001002 -16.616000 -2.192510 6.469440 -0.000001 175.131000 23.167200 179.567000 -39.081100 -0.002282 -0.040193 -0.077278 0.211914 20.823600 -40.985400 0.000008 0.000006 -3.486700 -1.167020 -65.532900 -11.754300 -0.000006 -0.000006 -0.003649 -0.047740 -18.514900
0.000000 0.000000 0.000000 0.000000 0.000000 -0.000000 -3.360290 91.959800 0.163294 88.434300 1.951130 2.906770 15.735700 0.000005 -0.000001 65.040200 86.901900 -60.850100 8.984550 -0.406207 -0.000000 -2.027070 -2.971590 8.328100 16.377300 -0.000001 -0.000001 0.079068 -1.628770 -1.500360 6.456720 -0.000001 -0.000000 -1.228690 -2.040850 0.483776 12.994200 -0.242716 4.980390 -85.598200 -9.287820 -64.500800 5.348090 -0.000007 -0.000001 -71.321700 -57.592500 -94.749300 24.328600 0.000019 0.000005 3.912890 2.201220 -60.683700 22.291600 -0.000001 0.000005 22.923200 5.659360 -15.984500 12.994500 -0.242716 -4.980390 90.873200 -2.435410 -70.267600 -5.348130 -0.000001 -0.000004 -66.322000 72.407500 17.485400 -24.328900 0.000322 -0.000009 21.540200 2.527540 -83.626100 -22.291500 -0.000108 -0.000004 34.290500 5.668380 -25.104200 -2.192480 -6.469440 -0.000000 -167.865000 -16.625900 -2.106960 39.081100 -0.000007 -0.000012 -0.144330 0.412036 19.304700 40.985400 -0.000006 -0.000013 -8.550740 -0.115786 -61.701300 11.754300 -0.000000 0.000003 -0.000127 -0.001263 -16.625800 -2.192510 6.469440 -0.000001 175.133000 23.233600 179.566000 -39.081100 -0.002282 -0.040193 -0.077869 0.214292 20.750200 -40.985400 0.000008 0.000006 -3.549750 -1.251800 -65.500700 -11.754300 -0.000006 -0.000006 -0.003314 -0.044101 -18.366700
